<?xml version="1.0" encoding="UTF-8" ?>
<svg xmlns="http://www.w3.org/2000/svg" width="800" height="600" version="1.1"> 
<path d="M600,400 400,600 600,600z" style="stroke-width:0.5;stroke:#ffffff;fill:#ffffff;fill-opacity:1;" />
<line x1="600" y1="600" x2="400" y2="600" style="stroke-width:0.5;stroke:#000000;fill:#000000;fill-opacity:1;" />
<line x1="400" y1="600" x2="600" y2="400" style="stroke-width:0.5;stroke:#000000;fill:#000000;fill-opacity:1;" />
<line x1="600" y1="400" x2="600" y2="600" style="stroke-width:0.5;stroke:#000000;fill:#000000;fill-opacity:1;" />
<circle cx="400" cy="600" r="1" style="stroke-width:1;stroke:#000000;fill:#000000;fill-opacity:1;" />
<circle cx="600" cy="600" r="1" style="stroke-width:1;stroke:#000000;fill:#000000;fill-opacity:1;" />
<circle cx="600" cy="400" r="1" style="stroke-width:1;stroke:#000000;fill:#000000;fill-opacity:1;" />
<line x1="400" y1="600" x2="600" y2="400" style="stroke-width:1.5;stroke:#1919bf;fill:#1919bf;fill-opacity:1;" />
<line x1="600" y1="400" x2="600" y2="600" style="stroke-width:1.5;stroke:#1919bf;fill:#1919bf;fill-opacity:1;" />
<circle cx="400" cy="600" r="2" style="stroke-width:2;stroke:#1919bf;fill:#1919bf;fill-opacity:1;" />
<circle cx="600" cy="600" r="2" style="stroke-width:2;stroke:#1919bf;fill:#1919bf;fill-opacity:1;" />
<circle cx="600" cy="400" r="2" style="stroke-width:2;stroke:#1919bf;fill:#1919bf;fill-opacity:1;" />
<line x1="600" y1="600" x2="400" y2="600" style="stroke-width:1.5;stroke:#721919;fill:#721919;fill-opacity:1;" />
<circle cx="400" cy="600" r="2" style="stroke-width:2;stroke:#721919;fill:#721919;fill-opacity:1;" />
<circle cx="600" cy="600" r="2" style="stroke-width:2;stroke:#721919;fill:#721919;fill-opacity:1;" />
<path d="M0,400 0,600 200,400z" style="stroke-width:0.5;stroke:#cdde87;fill:#cdde87;fill-opacity:1;" />
<path d="M200,400 0,600 200,600z" style="stroke-width:0.5;stroke:#cdde87;fill:#cdde87;fill-opacity:1;" />
<path d="M0,200 0,400 200,200z" style="stroke-width:0.5;stroke:#cdde87;fill:#cdde87;fill-opacity:1;" />
<path d="M200,200 0,400 200,400z" style="stroke-width:0.5;stroke:#cdde87;fill:#cdde87;fill-opacity:1;" />
<path d="M0,0 0,200 200,0z" style="stroke-width:0.5;stroke:#cdde87;fill:#cdde87;fill-opacity:1;" />
<path d="M200,0 0,200 200,200z" style="stroke-width:0.5;stroke:#cdde87;fill:#cdde87;fill-opacity:1;" />
<path d="M200,400 200,600 400,400z" style="stroke-width:0.5;stroke:#cdde87;fill:#cdde87;fill-opacity:1;" />
<path d="M400,400 200,600 400,600z" style="stroke-width:0.5;stroke:#cdde87;fill:#cdde87;fill-opacity:1;" />
<path d="M200,200 200,400 400,200z" style="stroke-width:0.5;stroke:#cdde87;fill:#cdde87;fill-opacity:1;" />
<path d="M400,200 200,400 400,400z" style="stroke-width:0.5;stroke:#cdde87;fill:#cdde87;fill-opacity:1;" />
<path d="M200,0 200,200 400,0z" style="stroke-width:0.5;stroke:#cdde87;fill:#cdde87;fill-opacity:1;" />
<path d="M400,0 200,200 400,200z" style="stroke-width:0.5;stroke:#cdde87;fill:#cdde87;fill-opacity:1;" />
<path d="M400,400 400,600 600,400z" style="stroke-width:0.5;stroke:#cdde87;fill:#cdde87;fill-opacity:1;" />
<path d="M400,200 400,400 600,200z" style="stroke-width:0.5;stroke:#cdde87;fill:#cdde87;fill-opacity:1;" />
<path d="M600,200 400,400 600,400z" style="stroke-width:0.5;stroke:#cdde87;fill:#cdde87;fill-opacity:1;" />
<path d="M400,0 400,200 600,0z" style="stroke-width:0.5;stroke:#cdde87;fill:#cdde87;fill-opacity:1;" />
<path d="M600,0 400,200 600,200z" style="stroke-width:0.5;stroke:#cdde87;fill:#cdde87;fill-opacity:1;" />
<path d="M600,400 600,600 800,400z" style="stroke-width:0.5;stroke:#cdde87;fill:#cdde87;fill-opacity:1;" />
<path d="M800,400 600,600 800,600z" style="stroke-width:0.5;stroke:#cdde87;fill:#cdde87;fill-opacity:1;" />
<path d="M600,200 600,400 800,200z" style="stroke-width:0.5;stroke:#cdde87;fill:#cdde87;fill-opacity:1;" />
<path d="M800,200 600,400 800,400z" style="stroke-width:0.5;stroke:#cdde87;fill:#cdde87;fill-opacity:1;" />
<path d="M600,0 600,200 800,0z" style="stroke-width:0.5;stroke:#cdde87;fill:#cdde87;fill-opacity:1;" />
<path d="M800,0 600,200 800,200z" style="stroke-width:0.5;stroke:#cdde87;fill:#cdde87;fill-opacity:1;" />
<line x1="0" y1="600" x2="0" y2="400" style="stroke-width:0.5;stroke:#000000;fill:#000000;fill-opacity:1;" />
<line x1="200" y1="600" x2="0" y2="600" style="stroke-width:0.5;stroke:#000000;fill:#000000;fill-opacity:1;" />
<line x1="200" y1="400" x2="0" y2="600" style="stroke-width:0.5;stroke:#000000;fill:#000000;fill-opacity:1;" />
<line x1="0" y1="400" x2="0" y2="200" style="stroke-width:0.5;stroke:#000000;fill:#000000;fill-opacity:1;" />
<line x1="0" y1="400" x2="200" y2="400" style="stroke-width:0.5;stroke:#000000;fill:#000000;fill-opacity:1;" />
<line x1="0" y1="400" x2="200" y2="200" style="stroke-width:0.5;stroke:#000000;fill:#000000;fill-opacity:1;" />
<line x1="0" y1="200" x2="0" y2="0" style="stroke-width:0.5;stroke:#000000;fill:#000000;fill-opacity:1;" />
<line x1="0" y1="200" x2="200" y2="200" style="stroke-width:0.5;stroke:#000000;fill:#000000;fill-opacity:1;" />
<line x1="0" y1="200" x2="200" y2="0" style="stroke-width:0.5;stroke:#000000;fill:#000000;fill-opacity:1;" />
<line x1="0" y1="0" x2="200" y2="0" style="stroke-width:0.5;stroke:#000000;fill:#000000;fill-opacity:1;" />
<line x1="200" y1="400" x2="200" y2="600" style="stroke-width:0.5;stroke:#000000;fill:#000000;fill-opacity:1;" />
<line x1="400" y1="600" x2="200" y2="600" style="stroke-width:0.5;stroke:#000000;fill:#000000;fill-opacity:1;" />
<line x1="200" y1="600" x2="400" y2="400" style="stroke-width:0.5;stroke:#000000;fill:#000000;fill-opacity:1;" />
<line x1="200" y1="200" x2="200" y2="400" style="stroke-width:0.5;stroke:#000000;fill:#000000;fill-opacity:1;" />
<line x1="200" y1="400" x2="400" y2="400" style="stroke-width:0.5;stroke:#000000;fill:#000000;fill-opacity:1;" />
<line x1="200" y1="400" x2="400" y2="200" style="stroke-width:0.5;stroke:#000000;fill:#000000;fill-opacity:1;" />
<line x1="200" y1="0" x2="200" y2="200" style="stroke-width:0.5;stroke:#000000;fill:#000000;fill-opacity:1;" />
<line x1="200" y1="200" x2="400" y2="200" style="stroke-width:0.5;stroke:#000000;fill:#000000;fill-opacity:1;" />
<line x1="200" y1="200" x2="400" y2="0" style="stroke-width:0.5;stroke:#000000;fill:#000000;fill-opacity:1;" />
<line x1="200" y1="0" x2="400" y2="0" style="stroke-width:0.5;stroke:#000000;fill:#000000;fill-opacity:1;" />
<line x1="400" y1="400" x2="400" y2="600" style="stroke-width:0.5;stroke:#000000;fill:#000000;fill-opacity:1;" />
<line x1="400" y1="600" x2="600" y2="400" style="stroke-width:0.5;stroke:#000000;fill:#000000;fill-opacity:1;" />
<line x1="400" y1="200" x2="400" y2="400" style="stroke-width:0.5;stroke:#000000;fill:#000000;fill-opacity:1;" />
<line x1="400" y1="400" x2="600" y2="400" style="stroke-width:0.5;stroke:#000000;fill:#000000;fill-opacity:1;" />
<line x1="400" y1="400" x2="600" y2="200" style="stroke-width:0.5;stroke:#000000;fill:#000000;fill-opacity:1;" />
<line x1="400" y1="0" x2="400" y2="200" style="stroke-width:0.5;stroke:#000000;fill:#000000;fill-opacity:1;" />
<line x1="400" y1="200" x2="600" y2="200" style="stroke-width:0.5;stroke:#000000;fill:#000000;fill-opacity:1;" />
<line x1="400" y1="200" x2="600" y2="0" style="stroke-width:0.5;stroke:#000000;fill:#000000;fill-opacity:1;" />
<line x1="400" y1="0" x2="600" y2="0" style="stroke-width:0.5;stroke:#000000;fill:#000000;fill-opacity:1;" />
<line x1="600" y1="400" x2="600" y2="600" style="stroke-width:0.5;stroke:#000000;fill:#000000;fill-opacity:1;" />
<line x1="800" y1="600" x2="600" y2="600" style="stroke-width:0.5;stroke:#000000;fill:#000000;fill-opacity:1;" />
<line x1="600" y1="600" x2="800" y2="400" style="stroke-width:0.5;stroke:#000000;fill:#000000;fill-opacity:1;" />
<line x1="600" y1="200" x2="600" y2="400" style="stroke-width:0.5;stroke:#000000;fill:#000000;fill-opacity:1;" />
<line x1="600" y1="400" x2="800" y2="400" style="stroke-width:0.5;stroke:#000000;fill:#000000;fill-opacity:1;" />
<line x1="600" y1="400" x2="800" y2="200" style="stroke-width:0.5;stroke:#000000;fill:#000000;fill-opacity:1;" />
<line x1="600" y1="0" x2="600" y2="200" style="stroke-width:0.5;stroke:#000000;fill:#000000;fill-opacity:1;" />
<line x1="600" y1="200" x2="800" y2="200" style="stroke-width:0.5;stroke:#000000;fill:#000000;fill-opacity:1;" />
<line x1="600" y1="200" x2="800" y2="0" style="stroke-width:0.5;stroke:#000000;fill:#000000;fill-opacity:1;" />
<line x1="600" y1="0" x2="800" y2="0" style="stroke-width:0.5;stroke:#000000;fill:#000000;fill-opacity:1;" />
<line x1="800" y1="400" x2="800" y2="600" style="stroke-width:0.5;stroke:#000000;fill:#000000;fill-opacity:1;" />
<line x1="800" y1="200" x2="800" y2="400" style="stroke-width:0.5;stroke:#000000;fill:#000000;fill-opacity:1;" />
<line x1="800" y1="0" x2="800" y2="200" style="stroke-width:0.5;stroke:#000000;fill:#000000;fill-opacity:1;" />
<circle cx="0" cy="600" r="1" style="stroke-width:1;stroke:#000000;fill:#000000;fill-opacity:1;" />
<circle cx="0" cy="400" r="1" style="stroke-width:1;stroke:#000000;fill:#000000;fill-opacity:1;" />
<circle cx="0" cy="200" r="1" style="stroke-width:1;stroke:#000000;fill:#000000;fill-opacity:1;" />
<circle cx="0" cy="0" r="1" style="stroke-width:1;stroke:#000000;fill:#000000;fill-opacity:1;" />
<circle cx="200" cy="600" r="1" style="stroke-width:1;stroke:#000000;fill:#000000;fill-opacity:1;" />
<circle cx="200" cy="400" r="1" style="stroke-width:1;stroke:#000000;fill:#000000;fill-opacity:1;" />
<circle cx="200" cy="200" r="1" style="stroke-width:1;stroke:#000000;fill:#000000;fill-opacity:1;" />
<circle cx="200" cy="0" r="1" style="stroke-width:1;stroke:#000000;fill:#000000;fill-opacity:1;" />
<circle cx="400" cy="600" r="1" style="stroke-width:1;stroke:#000000;fill:#000000;fill-opacity:1;" />
<circle cx="400" cy="400" r="1" style="stroke-width:1;stroke:#000000;fill:#000000;fill-opacity:1;" />
<circle cx="400" cy="200" r="1" style="stroke-width:1;stroke:#000000;fill:#000000;fill-opacity:1;" />
<circle cx="400" cy="0" r="1" style="stroke-width:1;stroke:#000000;fill:#000000;fill-opacity:1;" />
<circle cx="600" cy="600" r="1" style="stroke-width:1;stroke:#000000;fill:#000000;fill-opacity:1;" />
<circle cx="600" cy="400" r="1" style="stroke-width:1;stroke:#000000;fill:#000000;fill-opacity:1;" />
<circle cx="600" cy="200" r="1" style="stroke-width:1;stroke:#000000;fill:#000000;fill-opacity:1;" />
<circle cx="600" cy="0" r="1" style="stroke-width:1;stroke:#000000;fill:#000000;fill-opacity:1;" />
<circle cx="800" cy="600" r="1" style="stroke-width:1;stroke:#000000;fill:#000000;fill-opacity:1;" />
<circle cx="800" cy="400" r="1" style="stroke-width:1;stroke:#000000;fill:#000000;fill-opacity:1;" />
<circle cx="800" cy="200" r="1" style="stroke-width:1;stroke:#000000;fill:#000000;fill-opacity:1;" />
<circle cx="800" cy="0" r="1" style="stroke-width:1;stroke:#000000;fill:#000000;fill-opacity:1;" />
<line x1="400" y1="600" x2="600" y2="400" style="stroke-width:1.5;stroke:#1919bf;fill:#1919bf;fill-opacity:1;" />
<line x1="600" y1="400" x2="600" y2="600" style="stroke-width:1.5;stroke:#1919bf;fill:#1919bf;fill-opacity:1;" />
<circle cx="400" cy="600" r="2" style="stroke-width:2;stroke:#1919bf;fill:#1919bf;fill-opacity:1;" />
<circle cx="600" cy="600" r="2" style="stroke-width:2;stroke:#1919bf;fill:#1919bf;fill-opacity:1;" />
<circle cx="600" cy="400" r="2" style="stroke-width:2;stroke:#1919bf;fill:#1919bf;fill-opacity:1;" />
<line x1="0" y1="600" x2="0" y2="400" style="stroke-width:1.5;stroke:#721919;fill:#721919;fill-opacity:1;" />
<line x1="200" y1="600" x2="0" y2="600" style="stroke-width:1.5;stroke:#721919;fill:#721919;fill-opacity:1;" />
<line x1="0" y1="400" x2="0" y2="200" style="stroke-width:1.5;stroke:#721919;fill:#721919;fill-opacity:1;" />
<line x1="0" y1="200" x2="0" y2="0" style="stroke-width:1.5;stroke:#721919;fill:#721919;fill-opacity:1;" />
<line x1="0" y1="0" x2="200" y2="0" style="stroke-width:1.5;stroke:#721919;fill:#721919;fill-opacity:1;" />
<line x1="400" y1="600" x2="200" y2="600" style="stroke-width:1.5;stroke:#721919;fill:#721919;fill-opacity:1;" />
<line x1="200" y1="0" x2="400" y2="0" style="stroke-width:1.5;stroke:#721919;fill:#721919;fill-opacity:1;" />
<line x1="400" y1="0" x2="600" y2="0" style="stroke-width:1.5;stroke:#721919;fill:#721919;fill-opacity:1;" />
<line x1="800" y1="600" x2="600" y2="600" style="stroke-width:1.5;stroke:#721919;fill:#721919;fill-opacity:1;" />
<line x1="600" y1="0" x2="800" y2="0" style="stroke-width:1.5;stroke:#721919;fill:#721919;fill-opacity:1;" />
<line x1="800" y1="400" x2="800" y2="600" style="stroke-width:1.5;stroke:#721919;fill:#721919;fill-opacity:1;" />
<line x1="800" y1="200" x2="800" y2="400" style="stroke-width:1.5;stroke:#721919;fill:#721919;fill-opacity:1;" />
<line x1="800" y1="0" x2="800" y2="200" style="stroke-width:1.5;stroke:#721919;fill:#721919;fill-opacity:1;" />
<circle cx="0" cy="600" r="2" style="stroke-width:2;stroke:#721919;fill:#721919;fill-opacity:1;" />
<circle cx="0" cy="400" r="2" style="stroke-width:2;stroke:#721919;fill:#721919;fill-opacity:1;" />
<circle cx="0" cy="200" r="2" style="stroke-width:2;stroke:#721919;fill:#721919;fill-opacity:1;" />
<circle cx="0" cy="0" r="2" style="stroke-width:2;stroke:#721919;fill:#721919;fill-opacity:1;" />
<circle cx="200" cy="600" r="2" style="stroke-width:2;stroke:#721919;fill:#721919;fill-opacity:1;" />
<circle cx="200" cy="0" r="2" style="stroke-width:2;stroke:#721919;fill:#721919;fill-opacity:1;" />
<circle cx="400" cy="600" r="2" style="stroke-width:2;stroke:#721919;fill:#721919;fill-opacity:1;" />
<circle cx="400" cy="0" r="2" style="stroke-width:2;stroke:#721919;fill:#721919;fill-opacity:1;" />
<circle cx="600" cy="600" r="2" style="stroke-width:2;stroke:#721919;fill:#721919;fill-opacity:1;" />
<circle cx="600" cy="0" r="2" style="stroke-width:2;stroke:#721919;fill:#721919;fill-opacity:1;" />
<circle cx="800" cy="600" r="2" style="stroke-width:2;stroke:#721919;fill:#721919;fill-opacity:1;" />
<circle cx="800" cy="400" r="2" style="stroke-width:2;stroke:#721919;fill:#721919;fill-opacity:1;" />
<circle cx="800" cy="200" r="2" style="stroke-width:2;stroke:#721919;fill:#721919;fill-opacity:1;" />
<circle cx="800" cy="0" r="2" style="stroke-width:2;stroke:#721919;fill:#721919;fill-opacity:1;" />
</svg>